<?xml version="1.0" standalone="no"?>
<!DOCTYPE svg PUBLIC "-//W3C//DTD SVG 20010904//EN"
 "http://www.w3.org/TR/2001/REC-SVG-20010904/DTD/svg10.dtd">
<svg version="1.0" xmlns="http://www.w3.org/2000/svg"
 width="100%" height="100%" viewBox="0 0 2010.000000 2038.000000"
 preserveAspectRatio="xMidYMid meet">

<g transform="translate(0.000000,2038.000000) scale(0.100000,-0.100000)"
fill="#525865" stroke="none">
<path d="M17079 20063 c-249 -315 -645 -818 -1414 -1793 -258 -327 -627 -795
-820 -1040 -193 -245 -596 -755 -895 -1135 -1161 -1474 -1244 -1577 -1279
-1600 -31 -20 -5358 -3097 -5511 -3183 -56 -31 -73 -36 -170 -47 -30 -3 -66
-8 -80 -10 -25 -4 -69 -10 -150 -20 -35 -4 -999 -127 -1173 -150 -21 -2 -78
-9 -125 -15 -48 -6 -98 -13 -112 -15 -14 -2 -50 -7 -80 -10 -30 -3 -62 -8 -70
-10 -8 -2 -44 -7 -80 -10 -36 -4 -72 -8 -80 -10 -8 -1 -42 -6 -75 -9 -33 -4
-71 -9 -85 -11 -25 -4 -67 -10 -150 -20 -25 -3 -288 -36 -585 -74 -297 -38
-565 -72 -595 -76 -30 -3 -66 -8 -80 -10 -14 -2 -50 -7 -80 -10 -30 -4 -62 -9
-70 -10 -8 -2 -42 -6 -75 -9 -33 -4 -71 -9 -85 -11 -14 -2 -50 -7 -80 -10 -30
-4 -62 -9 -70 -10 -8 -2 -42 -6 -75 -9 -33 -4 -352 -45 -710 -91 -357 -46
-677 -87 -710 -91 -33 -3 -67 -7 -75 -9 -8 -1 -40 -6 -70 -10 -30 -3 -66 -8
-80 -10 -14 -2 -52 -7 -85 -10 -33 -4 -87 -10 -120 -15 -33 -5 -85 -12 -115
-16 -210 -24 -953 -123 -957 -128 -3 -3 35 -53 83 -112 49 -59 134 -162 189
-229 55 -67 158 -193 230 -280 72 -87 175 -213 230 -280 55 -67 170 -207 255
-310 85 -104 200 -243 255 -310 55 -67 159 -193 230 -280 72 -87 175 -213 230
-280 55 -67 163 -198 239 -291 134 -162 287 -348 501 -609 55 -67 163 -198
240 -291 76 -93 187 -227 245 -298 58 -71 150 -183 205 -251 55 -67 152 -184
215 -261 63 -76 179 -218 258 -314 80 -96 203 -247 276 -334 72 -88 176 -214
231 -282 111 -136 290 -353 501 -609 77 -93 191 -233 254 -309 63 -77 156
-189 205 -250 50 -61 148 -181 219 -266 150 -182 347 -422 463 -563 l82 -101
46 -190 c72 -294 162 -664 205 -841 166 -678 523 -2139 531 -2178 l11 -47 574
0 c316 0 574 2 574 4 0 1 -151 610 -335 1351 -185 741 -334 1349 -333 1350 3
3 75 -10 338 -60 74 -14 195 -37 268 -50 72 -14 192 -36 265 -50 72 -13 193
-36 267 -50 74 -14 194 -36 265 -50 72 -13 229 -42 350 -65 121 -22 292 -54
380 -71 295 -55 429 -80 530 -99 55 -11 174 -33 265 -50 227 -42 417 -78 535
-100 108 -21 292 -55 645 -121 124 -23 234 -43 245 -45 23 -5 169 -32 395 -74
168 -31 360 -67 400 -75 14 -3 72 -14 130 -25 58 -11 166 -31 240 -45 159 -30
350 -66 510 -95 63 -11 196 -36 295 -55 99 -19 194 -36 210 -39 17 -3 91 -17
165 -31 222 -42 392 -74 533 -99 172 -32 244 -48 232 -52 -27 -9 -414 -111
-605 -160 -118 -31 -348 -91 -510 -134 -162 -43 -351 -92 -420 -110 -69 -17
-276 -71 -460 -119 -866 -229 -1084 -286 -1205 -316 -71 -18 -301 -78 -510
-133 -349 -93 -668 -176 -1095 -288 l-165 -43 2201 -1 2201 0 529 136 c291 74
660 168 819 209 596 152 734 187 883 226 85 22 156 38 159 35 3 -2 -25 -137
-61 -299 -36 -162 -66 -297 -66 -300 0 -4 860 -7 1910 -7 l1910 0 0 1395 c0
767 -2 1395 -4 1395 -6 0 -143 -349 -243 -615 -145 -388 -370 -1048 -459
-1343 -18 -62 -31 -91 -40 -88 -15 6 -511 160 -614 191 -41 12 -208 64 -370
115 -162 50 -410 128 -550 171 -140 44 -257 83 -261 87 -4 4 566 583 1267
1287 l1274 1280 0 800 0 800 -192 -195 c-105 -107 -316 -321 -468 -475 -524
-532 -1377 -1400 -1485 -1513 -59 -62 -110 -111 -111 -109 -3 3 102 318 306
912 37 110 139 407 225 660 86 253 196 577 245 720 49 143 120 352 158 465 39
113 140 410 225 660 86 250 223 653 305 895 205 599 579 1699 696 2041 l96
281 0 1572 0 1573 -329 876 c-181 482 -699 1863 -1151 3067 -452 1205 -928
2471 -1056 2815 -129 344 -238 628 -243 633 -4 4 -113 -126 -242 -290z m-47
-2101 c20 -53 258 -689 529 -1412 271 -723 718 -1918 994 -2655 277 -737 501
-1342 500 -1344 -4 -3 -80 22 -161 53 -21 8 -111 40 -199 71 -88 31 -182 65
-210 75 -27 10 -120 43 -205 73 -410 145 -478 170 -525 187 -27 10 -122 44
-210 75 -88 31 -182 65 -210 75 -27 10 -122 44 -210 75 -88 31 -182 65 -210
75 -27 10 -122 44 -210 75 -88 31 -182 65 -210 75 -27 11 -342 123 -700 250
-357 128 -735 262 -840 300 -104 37 -262 94 -350 125 -88 31 -182 65 -210 75
-27 10 -115 42 -195 70 -79 28 -146 53 -148 55 -2 2 122 162 275 357 1488
1885 2249 2849 2312 2929 42 53 137 173 211 267 74 94 137 172 140 172 3 0 22
-44 42 -98z m-3752 -4563 c63 -22 138 -49 165 -59 101 -37 274 -99 430 -155
88 -31 210 -75 270 -97 61 -22 146 -53 190 -69 44 -16 123 -44 175 -63 52 -19
160 -57 240 -86 80 -28 181 -65 225 -81 44 -16 125 -45 180 -65 55 -19 147
-53 205 -74 58 -21 177 -64 265 -95 160 -57 336 -120 430 -155 28 -10 172 -62
320 -115 149 -53 313 -112 365 -131 52 -19 131 -47 175 -63 44 -16 130 -47
190 -69 61 -22 232 -84 380 -137 149 -52 293 -104 320 -115 28 -10 172 -62
320 -115 149 -53 311 -112 360 -130 50 -18 152 -54 227 -81 76 -27 138 -51
138 -54 -1 -7 -11772 -6801 -11777 -6797 -2 2 3 51 12 108 8 57 30 228 50 379
20 151 47 356 60 455 13 99 40 304 60 455 20 151 47 356 60 455 13 99 36 270
50 380 44 337 74 566 85 645 10 72 27 203 85 645 37 279 69 526 110 835 19
146 47 353 61 460 115 876 126 955 135 965 17 18 5294 3063 5309 3064 9 1 67
-17 130 -40z m5611 -3626 c-82 -241 -271 -798 -421 -1238 -150 -440 -309 -910
-355 -1045 -46 -135 -122 -360 -170 -500 -48 -140 -122 -358 -165 -485 -116
-341 -459 -1352 -705 -2075 -369 -1083 -591 -1736 -672 -1978 -73 -216 -99
-282 -112 -282 -9 0 -50 6 -91 14 -167 32 -309 59 -510 96 -85 16 -204 38
-265 50 -60 11 -159 30 -220 41 -60 11 -191 35 -290 54 -99 19 -191 36 -205
38 -166 31 -231 43 -390 73 -183 35 -330 63 -585 109 -71 14 -191 36 -265 50
-74 14 -193 36 -265 50 -71 13 -213 39 -315 59 -102 19 -225 42 -275 51 -49 9
-99 19 -110 21 -53 10 -520 98 -692 129 -218 41 -390 73 -533 100 -129 24
-190 36 -555 104 -214 40 -374 70 -405 76 -23 4 -95 18 -487 90 -218 41 -390
73 -533 100 -74 14 -196 37 -270 51 -298 55 -401 75 -530 99 -254 48 -395 74
-522 97 -71 12 -128 25 -128 28 1 4 11180 6460 11187 6460 1 0 -65 -197 -146
-437z m-12255 220 c-4 -38 -32 -255 -61 -483 -30 -228 -71 -539 -91 -690 -19
-151 -55 -426 -79 -610 -24 -184 -65 -495 -90 -690 -25 -195 -66 -506 -90
-690 -24 -184 -65 -495 -90 -690 -25 -195 -66 -506 -90 -690 -24 -184 -49
-379 -56 -432 -7 -54 -16 -98 -19 -98 -9 0 -117 130 -615 740 -82 101 -184
225 -225 275 -42 49 -134 162 -205 249 -138 169 -272 333 -525 640 -85 104
-198 242 -250 306 -52 64 -176 215 -275 335 -99 120 -234 285 -300 366 -259
316 -419 511 -561 684 -81 99 -197 241 -258 315 -60 74 -133 162 -160 195
-197 236 -391 478 -391 488 0 7 22 15 55 18 58 7 116 14 240 29 41 5 95 12
120 15 25 3 101 12 170 20 69 9 145 18 170 21 25 3 95 11 155 19 61 8 135 17
165 20 48 5 119 14 250 30 19 3 58 7 85 10 28 3 100 12 160 20 61 8 135 17
165 20 48 5 119 14 250 30 19 3 58 7 85 10 46 6 162 20 245 30 19 3 58 7 85
10 28 3 82 10 120 15 39 5 93 12 120 15 28 3 66 7 85 10 83 10 199 24 245 30
28 3 66 7 85 10 131 16 202 25 250 30 30 3 105 12 165 20 61 8 135 17 165 20
30 3 87 10 125 15 39 5 93 12 120 15 28 3 70 8 95 11 25 3 92 11 150 19 58 8
137 17 175 20 39 4 72 9 74 11 2 2 18 4 34 4 l30 0 -7 -67z"/>
</g>
</svg>
